<mxfile host="app.diagrams.net" modified="2022-02-19T20:49:13.434Z" agent="5.0 (Windows NT 10.0; Win64; x64) AppleWebKit/537.36 (KHTML, like Gecko) Chrome/98.0.4758.102 Safari/537.36" etag="S0qXGYCm1579LZYa5vmA" version="16.6.1" type="github">
  <diagram id="C5RBs43oDa-KdzZeNtuy" name="Page-1">
    <mxGraphModel dx="1741" dy="762" grid="1" gridSize="10" guides="1" tooltips="1" connect="1" arrows="1" fold="1" page="1" pageScale="1" pageWidth="827" pageHeight="1169" math="0" shadow="0">
      <root>
        <mxCell id="WIyWlLk6GJQsqaUBKTNV-0" />
        <mxCell id="WIyWlLk6GJQsqaUBKTNV-1" parent="WIyWlLk6GJQsqaUBKTNV-0" />
        <mxCell id="WIyWlLk6GJQsqaUBKTNV-3" value="Inicio" style="rounded=1;whiteSpace=wrap;html=1;fontSize=12;glass=0;strokeWidth=1;shadow=0;" parent="WIyWlLk6GJQsqaUBKTNV-1" vertex="1">
          <mxGeometry x="160" y="40" width="120" height="40" as="geometry" />
        </mxCell>
        <mxCell id="kJD3y-_oCrTrb81wseK7-0" value="&lt;span style=&quot;color: rgb(0 , 0 , 0) ; font-family: &amp;#34;helvetica&amp;#34; ; font-size: 12px ; font-style: normal ; font-weight: 400 ; letter-spacing: normal ; text-align: center ; text-indent: 0px ; text-transform: none ; word-spacing: 0px ; background-color: rgb(248 , 249 , 250) ; display: inline ; float: none&quot;&gt;Escribir &quot;Tipo de carne: 1. Vacuno 2. Cordero&quot;&lt;/span&gt;" style="shape=parallelogram;perimeter=parallelogramPerimeter;whiteSpace=wrap;html=1;fixedSize=1;" vertex="1" parent="WIyWlLk6GJQsqaUBKTNV-1">
          <mxGeometry x="150" y="100" width="160" height="60" as="geometry" />
        </mxCell>
        <mxCell id="kJD3y-_oCrTrb81wseK7-9" value="Escribir: &quot;Modo de cocción 1. Casi crudo 2. Al punto 3. Bien hecho&quot;" style="shape=parallelogram;perimeter=parallelogramPerimeter;whiteSpace=wrap;html=1;fixedSize=1;" vertex="1" parent="WIyWlLk6GJQsqaUBKTNV-1">
          <mxGeometry x="140" y="290" width="180" height="70" as="geometry" />
        </mxCell>
        <mxCell id="kJD3y-_oCrTrb81wseK7-11" value="Poner el valor introducido en la variable modo" style="shape=parallelogram;perimeter=parallelogramPerimeter;whiteSpace=wrap;html=1;fixedSize=1;" vertex="1" parent="WIyWlLk6GJQsqaUBKTNV-1">
          <mxGeometry x="165" y="390" width="130" height="70" as="geometry" />
        </mxCell>
        <mxCell id="kJD3y-_oCrTrb81wseK7-2" value="Poner el valor introducido en la variable tipo" style="shape=parallelogram;perimeter=parallelogramPerimeter;whiteSpace=wrap;html=1;fixedSize=1;" vertex="1" parent="WIyWlLk6GJQsqaUBKTNV-1">
          <mxGeometry x="147.5" y="190" width="165" height="70" as="geometry" />
        </mxCell>
        <mxCell id="kJD3y-_oCrTrb81wseK7-18" value="Escribir: &quot;Introduzca el peso en gramos" style="shape=parallelogram;perimeter=parallelogramPerimeter;whiteSpace=wrap;html=1;fixedSize=1;" vertex="1" parent="WIyWlLk6GJQsqaUBKTNV-1">
          <mxGeometry x="152.5" y="500" width="155" height="70" as="geometry" />
        </mxCell>
        <mxCell id="kJD3y-_oCrTrb81wseK7-20" value="Poner el valor introducido en la variable peso" style="shape=parallelogram;perimeter=parallelogramPerimeter;whiteSpace=wrap;html=1;fixedSize=1;" vertex="1" parent="WIyWlLk6GJQsqaUBKTNV-1">
          <mxGeometry x="162.5" y="600" width="135" height="70" as="geometry" />
        </mxCell>
        <mxCell id="kJD3y-_oCrTrb81wseK7-25" value="" style="edgeStyle=orthogonalEdgeStyle;rounded=0;orthogonalLoop=1;jettySize=auto;html=1;" edge="1" parent="WIyWlLk6GJQsqaUBKTNV-1" source="kJD3y-_oCrTrb81wseK7-22" target="kJD3y-_oCrTrb81wseK7-24">
          <mxGeometry relative="1" as="geometry" />
        </mxCell>
        <mxCell id="kJD3y-_oCrTrb81wseK7-22" value="¿Tipo es igual&amp;nbsp; a vacuno?" style="rhombus;whiteSpace=wrap;html=1;" vertex="1" parent="WIyWlLk6GJQsqaUBKTNV-1">
          <mxGeometry x="180" y="700" width="100" height="100" as="geometry" />
        </mxCell>
        <mxCell id="kJD3y-_oCrTrb81wseK7-31" value="" style="edgeStyle=orthogonalEdgeStyle;rounded=0;orthogonalLoop=1;jettySize=auto;html=1;startArrow=none;" edge="1" parent="WIyWlLk6GJQsqaUBKTNV-1" source="kJD3y-_oCrTrb81wseK7-29" target="kJD3y-_oCrTrb81wseK7-30">
          <mxGeometry relative="1" as="geometry" />
        </mxCell>
        <mxCell id="kJD3y-_oCrTrb81wseK7-24" value="¿Tipo es igual a cordero?" style="rhombus;whiteSpace=wrap;html=1;" vertex="1" parent="WIyWlLk6GJQsqaUBKTNV-1">
          <mxGeometry x="430" y="700.25" width="100" height="100" as="geometry" />
        </mxCell>
        <mxCell id="kJD3y-_oCrTrb81wseK7-27" value="" style="ellipse;whiteSpace=wrap;html=1;aspect=fixed;" vertex="1" parent="WIyWlLk6GJQsqaUBKTNV-1">
          <mxGeometry x="280" y="742.5" width="15.5" height="15.5" as="geometry" />
        </mxCell>
        <mxCell id="kJD3y-_oCrTrb81wseK7-28" value="Falso" style="text;strokeColor=none;fillColor=none;align=left;verticalAlign=middle;spacingLeft=4;spacingRight=4;overflow=hidden;points=[[0,0.5],[1,0.5]];portConstraint=eastwest;rotatable=0;" vertex="1" parent="WIyWlLk6GJQsqaUBKTNV-1">
          <mxGeometry x="280" y="720" width="80" height="30" as="geometry" />
        </mxCell>
        <mxCell id="kJD3y-_oCrTrb81wseK7-30" value="Escribir &quot;El tipo de carne introducido no es correcto&quot;" style="shape=parallelogram;perimeter=parallelogramPerimeter;whiteSpace=wrap;html=1;fixedSize=1;" vertex="1" parent="WIyWlLk6GJQsqaUBKTNV-1">
          <mxGeometry x="620" y="720" width="170" height="60" as="geometry" />
        </mxCell>
        <mxCell id="kJD3y-_oCrTrb81wseK7-32" value="Falso" style="text;html=1;strokeColor=none;fillColor=none;align=center;verticalAlign=middle;whiteSpace=wrap;rounded=0;" vertex="1" parent="WIyWlLk6GJQsqaUBKTNV-1">
          <mxGeometry x="520" y="720" width="60" height="30" as="geometry" />
        </mxCell>
        <mxCell id="kJD3y-_oCrTrb81wseK7-34" value="Multiplicar peso por por 10 por 60 y dividirlo entre 500" style="rounded=0;whiteSpace=wrap;html=1;" vertex="1" parent="WIyWlLk6GJQsqaUBKTNV-1">
          <mxGeometry y="880" width="100" height="70" as="geometry" />
        </mxCell>
        <mxCell id="kJD3y-_oCrTrb81wseK7-35" value="Multiplicar peso por 17 por 60 y dividirlo entre 500" style="rounded=0;whiteSpace=wrap;html=1;" vertex="1" parent="WIyWlLk6GJQsqaUBKTNV-1">
          <mxGeometry x="130" y="880" width="92.5" height="70" as="geometry" />
        </mxCell>
        <mxCell id="kJD3y-_oCrTrb81wseK7-36" value="&lt;span&gt;Multiplicar peso por 25 por 60 y dividirlo entre 500&lt;/span&gt;" style="rounded=0;whiteSpace=wrap;html=1;" vertex="1" parent="WIyWlLk6GJQsqaUBKTNV-1">
          <mxGeometry x="250" y="880" width="100" height="70" as="geometry" />
        </mxCell>
        <mxCell id="kJD3y-_oCrTrb81wseK7-29" value="" style="ellipse;whiteSpace=wrap;html=1;aspect=fixed;" vertex="1" parent="WIyWlLk6GJQsqaUBKTNV-1">
          <mxGeometry x="530" y="742.5" width="15.5" height="15.5" as="geometry" />
        </mxCell>
        <mxCell id="kJD3y-_oCrTrb81wseK7-52" value="" style="rounded=0;html=1;jettySize=auto;orthogonalLoop=1;fontSize=11;endArrow=block;endFill=0;endSize=8;strokeWidth=1;shadow=0;labelBackgroundColor=none;edgeStyle=orthogonalEdgeStyle;entryX=0.5;entryY=0;entryDx=0;entryDy=0;exitX=0.5;exitY=1;exitDx=0;exitDy=0;" edge="1" parent="WIyWlLk6GJQsqaUBKTNV-1" source="kJD3y-_oCrTrb81wseK7-22" target="kJD3y-_oCrTrb81wseK7-35">
          <mxGeometry relative="1" as="geometry">
            <mxPoint x="-30" y="600" as="sourcePoint" />
            <mxPoint x="-29.980000000000018" y="678.02" as="targetPoint" />
            <Array as="points">
              <mxPoint x="230" y="840" />
              <mxPoint x="176" y="840" />
            </Array>
          </mxGeometry>
        </mxCell>
        <mxCell id="kJD3y-_oCrTrb81wseK7-53" value="" style="rounded=0;html=1;jettySize=auto;orthogonalLoop=1;fontSize=11;endArrow=block;endFill=0;endSize=8;strokeWidth=1;shadow=0;labelBackgroundColor=none;edgeStyle=orthogonalEdgeStyle;exitX=0.5;exitY=1;exitDx=0;exitDy=0;" edge="1" parent="WIyWlLk6GJQsqaUBKTNV-1" source="kJD3y-_oCrTrb81wseK7-20" target="kJD3y-_oCrTrb81wseK7-22">
          <mxGeometry relative="1" as="geometry">
            <mxPoint x="-20" y="610" as="sourcePoint" />
            <mxPoint x="-19.980000000000018" y="688.02" as="targetPoint" />
          </mxGeometry>
        </mxCell>
        <mxCell id="kJD3y-_oCrTrb81wseK7-54" value="" style="rounded=0;html=1;jettySize=auto;orthogonalLoop=1;fontSize=11;endArrow=block;endFill=0;endSize=8;strokeWidth=1;shadow=0;labelBackgroundColor=none;edgeStyle=orthogonalEdgeStyle;exitX=0.5;exitY=1;exitDx=0;exitDy=0;" edge="1" parent="WIyWlLk6GJQsqaUBKTNV-1" source="kJD3y-_oCrTrb81wseK7-18" target="kJD3y-_oCrTrb81wseK7-20">
          <mxGeometry relative="1" as="geometry">
            <mxPoint x="-10" y="620" as="sourcePoint" />
            <mxPoint x="-9.980000000000018" y="698.02" as="targetPoint" />
          </mxGeometry>
        </mxCell>
        <mxCell id="kJD3y-_oCrTrb81wseK7-55" value="" style="rounded=0;html=1;jettySize=auto;orthogonalLoop=1;fontSize=11;endArrow=block;endFill=0;endSize=8;strokeWidth=1;shadow=0;labelBackgroundColor=none;edgeStyle=orthogonalEdgeStyle;exitX=0.5;exitY=1;exitDx=0;exitDy=0;" edge="1" parent="WIyWlLk6GJQsqaUBKTNV-1" source="kJD3y-_oCrTrb81wseK7-11" target="kJD3y-_oCrTrb81wseK7-18">
          <mxGeometry relative="1" as="geometry">
            <mxPoint y="630" as="sourcePoint" />
            <mxPoint x="0.01999999999998181" y="708.02" as="targetPoint" />
          </mxGeometry>
        </mxCell>
        <mxCell id="kJD3y-_oCrTrb81wseK7-56" value="" style="rounded=0;html=1;jettySize=auto;orthogonalLoop=1;fontSize=11;endArrow=block;endFill=0;endSize=8;strokeWidth=1;shadow=0;labelBackgroundColor=none;edgeStyle=orthogonalEdgeStyle;exitX=0.5;exitY=1;exitDx=0;exitDy=0;" edge="1" parent="WIyWlLk6GJQsqaUBKTNV-1" source="kJD3y-_oCrTrb81wseK7-2">
          <mxGeometry relative="1" as="geometry">
            <mxPoint x="10" y="640" as="sourcePoint" />
            <mxPoint x="230" y="290" as="targetPoint" />
          </mxGeometry>
        </mxCell>
        <mxCell id="kJD3y-_oCrTrb81wseK7-57" value="" style="rounded=0;html=1;jettySize=auto;orthogonalLoop=1;fontSize=11;endArrow=block;endFill=0;endSize=8;strokeWidth=1;shadow=0;labelBackgroundColor=none;edgeStyle=orthogonalEdgeStyle;exitX=0.5;exitY=1;exitDx=0;exitDy=0;" edge="1" parent="WIyWlLk6GJQsqaUBKTNV-1" source="kJD3y-_oCrTrb81wseK7-9">
          <mxGeometry relative="1" as="geometry">
            <mxPoint x="20" y="650" as="sourcePoint" />
            <mxPoint x="230" y="390" as="targetPoint" />
          </mxGeometry>
        </mxCell>
        <mxCell id="kJD3y-_oCrTrb81wseK7-58" value="" style="rounded=0;html=1;jettySize=auto;orthogonalLoop=1;fontSize=11;endArrow=block;endFill=0;endSize=8;strokeWidth=1;shadow=0;labelBackgroundColor=none;edgeStyle=orthogonalEdgeStyle;entryX=0.5;entryY=0;entryDx=0;entryDy=0;exitX=0.5;exitY=1;exitDx=0;exitDy=0;" edge="1" parent="WIyWlLk6GJQsqaUBKTNV-1" source="WIyWlLk6GJQsqaUBKTNV-3" target="kJD3y-_oCrTrb81wseK7-0">
          <mxGeometry relative="1" as="geometry">
            <mxPoint x="30" y="660" as="sourcePoint" />
            <mxPoint x="30.019999999999982" y="738.02" as="targetPoint" />
          </mxGeometry>
        </mxCell>
        <mxCell id="kJD3y-_oCrTrb81wseK7-59" value="" style="rounded=0;html=1;jettySize=auto;orthogonalLoop=1;fontSize=11;endArrow=block;endFill=0;endSize=8;strokeWidth=1;shadow=0;labelBackgroundColor=none;edgeStyle=orthogonalEdgeStyle;entryX=0.5;entryY=0;entryDx=0;entryDy=0;exitX=0.5;exitY=1;exitDx=0;exitDy=0;" edge="1" parent="WIyWlLk6GJQsqaUBKTNV-1" source="kJD3y-_oCrTrb81wseK7-0" target="kJD3y-_oCrTrb81wseK7-2">
          <mxGeometry relative="1" as="geometry">
            <mxPoint x="40" y="670" as="sourcePoint" />
            <mxPoint x="40.01999999999998" y="748.02" as="targetPoint" />
          </mxGeometry>
        </mxCell>
      </root>
    </mxGraphModel>
  </diagram>
</mxfile>
